<?xml version="1.0" encoding="utf-8"?>
<!-- Generator: Adobe Illustrator 26.0.1, SVG Export Plug-In . SVG Version: 6.00 Build 0)  -->
<svg version="1.1" id="Layer_1" xmlns="http://www.w3.org/2000/svg" xmlns:xlink="http://www.w3.org/1999/xlink" x="0px" y="0px"
	 viewBox="0 0 253 253" style="enable-background:new 0 0 253 253;" xml:space="preserve">
<style type="text/css">
	.st0{fill:#86C542;}
	.st1{fill:#FFFFFF;}
	.st2{fill:#E1A926;}
</style>
<g>
	<path class="st0" d="M252.5,126.5c0,69.58-56.41,126-126,126s-126-56.42-126-126C0.5,56.91,56.91,0.5,126.5,0.5
		S252.5,56.91,252.5,126.5z"/>
	<g>
		<g>
			<g>
				<g>
					<path class="st1" d="M145.33,107.89c-0.07,10.97-2.47,19.05-4.12,24.44c-2.73,8.94-8.6,23.84-21.87,39.48
						c-0.62-0.32-1.28-0.56-1.98-0.71c2.24-3.69,6.01-10.82,7.36-20.22c6.21-43.2-47.42-73.6-37.11-110.14
						c0.97-3.42,3.12-9.12,8.69-15.46c0.34,2.3,1.07,6.09,2.8,10.45c9.27,23.48,31.4,23.32,41.52,45.06
						C145.44,91.14,145.37,101.8,145.33,107.89z"/>
				</g>
				<g>
					<path class="st1" d="M193.92,95.52c0.03,2.26-0.08,5.68-0.88,9.72c-1.74,8.77-6.14,17.36-16.49,28.27
						c-19.24,20.26-47.62,36.45-54.63,40.37c-0.52-0.62-1.12-1.15-1.79-1.6c9.52-10.03,15.16-19.89,18.42-26.69
						c8.54-17.81,9.55-33.05,9.72-36.22c0.26-4.84,0.62-12.47-1.77-22.09c-2.01-8.09-5.15-14.36-7.66-18.55
						c7.85,1.46,18.45,4.28,30.04,10.01C179.83,84.15,188.13,90.42,193.92,95.52z"/>
				</g>
				<g>
					<path class="st1" d="M216.6,139.1c-3.64,2.34-8.61,5.36-14.72,8.54c-1.01,0.53-4.49,2.33-9.72,4.71
						c-2.82,1.28-9.64,4.34-19.44,7.95c-19.05,7.02-46.8,15.23-49.39,15.99c-0.2-0.53-0.45-1.04-0.75-1.52
						c4.24-2.27,10.42-5.68,17.75-10.06c14.38-8.6,22.39-13.4,31.51-21.2c10.67-9.14,20.2-17.51,24.15-31.51
						c1.49-5.29,1.77-9.89,1.77-12.96c3.67,3.69,8.87,9.8,12.96,18.55C214.73,126.2,216.09,133.97,216.6,139.1z"/>
				</g>
				<g>
					<path class="st1" d="M213.95,164.43c-1.51,3.84-3.42,7.19-5.5,10.11c-6.05-0.36-12.1-0.59-18.15-0.7
						c-7.09-0.14-14.17-0.1-21.24,0.09c-7.07,0.21-14.14,0.56-21.19,1.09c-7.05,0.53-14.08,1.22-21.09,2.08
						c7.04-0.49,14.09-0.81,21.14-0.97s14.1-0.14,21.14,0.02c7.42,0.17,9.49,0.5,21.09,1.01c6.45,0.28,11.68,0.45,14.97,0.54
						c-0.62,0.76-1.31,1.55-2.06,2.36c-0.7,0.75-1.39,1.43-2.06,2.06c-18.95-1.08-37.89-2.16-56.84-3.24
						c17.38,2.26,34.75,4.52,52.13,6.77c-1.02,0.78-2.1,1.57-3.24,2.36c-0.9,0.62-1.78,1.21-2.65,1.77
						c-22.2-3.8-44.4-7.59-66.59-11.39c-0.04-0.47-0.13-0.92-0.24-1.37c7.93-2.26,19.15-5.45,32.68-9.34c0,0,12.17-3.49,30.63-9.42
						c6.06-1.95,14.42-4.69,24.44-10.31c2.49-1.39,4.5-2.64,5.89-3.53C217.41,149.08,217.12,156.38,213.95,164.43z"/>
				</g>
				<g>
					<path class="st1" d="M108.6,174.78c-0.66,1.05-1.09,2.27-1.22,3.57c-3.72-0.04-9.02-0.18-15.35-0.67
						c-11.93-0.92-22.19-1.7-33.87-5.6c-5.51-1.84-13.21-4.99-21.79-10.6c-0.43-3.11-0.69-6.67-0.59-10.6
						c0.22-8.35,2.03-15.29,3.83-20.32c3.56,3.5,8.54,8.22,14.72,13.55c4.55,3.92,7.95,6.84,12.66,10.31
						c6.33,4.65,16.66,12.16,31.51,17.38C102.29,173.12,105.71,174.08,108.6,174.78z"/>
				</g>
				<g>
					<path class="st1" d="M107.76,181.74c-4.39,0.28-10.49,0.64-17.79,0.95c-7.98,0.34-13.41,0.58-19.73,0.59
						c-6.36,0.01-15.09-0.2-25.62-1.18c-2.49-2.59-5.94-7-7.66-13.25c-0.46-1.68-0.73-3.26-0.88-4.71c7.02,4.99,13.3,7.8,17.67,9.42
						c11.61,4.31,21.96,4.82,40.93,5.6c5.02,0.21,9.35,0.27,12.67,0.29C107.37,180.25,107.51,181.01,107.76,181.74z"/>
				</g>
				<g>
					<path class="st1" d="M110.87,185.93c-21.11,1.96-42.21,3.93-63.32,5.89c-0.49-0.64-0.98-1.32-1.47-2.06
						c-0.95-1.44-1.73-2.83-2.36-4.12c13.44-0.12,27.29-0.5,41.52-1.18c7.82-0.37,15.52-0.83,23.09-1.36
						c0.62,1.12,1.48,2.09,2.53,2.82C110.87,185.92,110.87,185.93,110.87,185.93z"/>
				</g>
				<path class="st1" d="M81.72,183.28"/>
			</g>
		</g>
		<g>
			<path class="st2" d="M47.56,195.5c-0.98,0-1.81-0.74-1.9-1.74c-0.1-1.05,0.68-1.99,1.73-2.08c10.72-1,21.44-2,32.15-2.99
				c10.18-0.95,20.37-1.89,30.55-2.84l0.62-0.06l0.54,0.32c1.26,0.75,2.72,1.15,4.2,1.15c4.08,0,7.59-3.04,8.16-7.08l0.28-1.97
				l66.55,12.02c1.04,0.19,1.73,1.18,1.54,2.22s-1.18,1.73-2.22,1.54l-62.8-11.34c-1.56,4.92-6.21,8.43-11.51,8.43
				c-1.95,0-3.87-0.47-5.59-1.37c-9.99,0.93-19.98,1.86-29.96,2.79c-10.72,1-21.44,1.99-32.15,2.99
				C47.67,195.5,47.61,195.5,47.56,195.5z"/>
		</g>
	</g>
</g>
</svg>
